#!OML:ASF F:\VICON\USERDATA\INSTALL\SteveWalk\SteveWalk.ASF
:FULLY-SPECIFIED
:DEGREES
257
root -0.219661 16.5237 11.2158 18.2572 3.00148 -0.104277
lowerback -14.3248 -0.716617 3.03867
upperback -5.44798 -1.42481 2.15447
thorax 2.2601 -0.718142 0.309501
lowerneck -4.91614 0.381106 1.06776
upperneck 7.02411 0.783561 -4.64662
head 3.15664 0.24503 -1.67427
rclavicle -2.42269e-015 9.54166e-015
rhumerus -36.9547 -26.6142 -71.3356
rradius 19.4532
rwrist 9.86497
rhand -16.6571 -34.3997
rfingers 7.12502
rthumb 9.56617 -64.1625
lclavicle -2.42269e-015 9.54166e-015
lhumerus -32.5745 10.5409 81.8692
lradius 24.1184
lwrist -6.72418
lhand -19.0792 -18.5195
lfingers 7.12502
lthumb 7.22869 11.3371
rfemur -32.951 -2.67753 24.7919
rtibia 35.7908
rfoot -20.4972 4.38731
rtoes -8.45747
lfemur -39.9585 1.25402 -19.9207
ltibia 72.6503
lfoot -3.66678 1.3457
ltoes -5.03058
258
root -0.226696 16.5135 11.4023 18.207 3.08089 -0.0221608
lowerback -14.0996 -0.734485 2.83694
upperback -5.4729 -1.40951 2.12837
thorax 2.11836 -0.710573 0.401749
lowerneck -4.7544 0.393023 1.25454
upperneck 6.94947 0.79881 -4.86803
head 3.10548 0.252466 -1.77905
rclavicle -7.23079e-015 6.36111e-015
rhumerus -34.9233 -23.2029 -74.3379
rradius 21.1096
rwrist 6.40424
rhand -16.7461 -34.8078
rfingers 7.12502
rthumb 9.48037 -64.5746
lclavicle -7.23079e-015 6.36111e-015
lhumerus -33.387 12.1794 80.9599
lradius 21.883
lwrist -9.784
lhand -17.8488 -18.0898
lfingers 7.12502
lthumb 8.41622 11.7225
rfemur -32.1864 -3.38384 24.929
rtibia 35.7754
rfoot -21.095 4.71195
rtoes -8.70162
lfemur -41.2791 1.27728 -20.1412
ltibia 71.8287
lfoot -4.86558 1.54876
ltoes -5.84838
259
root -0.228939 16.5085 11.5994 18.1611 3.13044 -0.0768301
lowerback -14.1267 -0.71263 2.7868
upperback -5.42141 -1.3783 2.17342
thorax 2.18983 -0.692986 0.480894
lowerneck -4.57113 0.398463 1.21807
upperneck 6.83685 0.812619 -4.979
head 3.03372 0.258086 -1.8063
rclavicle -1.3654e-014 2.38542e-014
rhumerus -33.1552 -19.4626 -76.9332
rradius 22.945
rwrist 2.68421
rhand -16.7199 -35.2753
rfingers 7.12502
rthumb 9.50557 -65.0409
lclavicle -1.3654e-014 2.38542e-014
lhumerus -34.2359 14.2146 79.862
lradius 19.7837
lwrist -13.3293
lhand -16.5295 -17.25
lfingers 7.12502
lthumb 9.68926 12.5072
rfemur -31.3463 -4.23678 25.2235
rtibia 35.7036
rfoot -21.9234 5.35869
rtoes -7.52074
lfemur -42.3997 1.3314 -20.2515
ltibia 70.7715
lfoot -5.62695 1.78128
ltoes -9.27279
260
root -0.230806 16.5076 11.8185 18.179 3.07446 -0.250243
lowerback -14.5103 -0.614124 2.87822
upperback -5.35042 -1.28092 2.20805
thorax 2.46941 -0.641394 0.475292
lowerneck -4.37994 0.395581 1.0183
upperneck 6.91865 0.817183 -4.85528
head 3.02178 0.260812 -1.72886
rclavicle 1.51573e-015 3.18055e-015
rhumerus -31.7004 -16.477 -78.796
rradius 24.4525
rwrist -0.293576
rhand -17.0306 -34.1888
rfingers 7.12502
rthumb 9.20584 -63.9678
lclavicle 1.51573e-015 3.18055e-015
lhumerus -35.3455 16.2686 78.5084
lradius 18.0613
lwrist -17.2207
lhand -14.7 -16.1887
lfingers 7.12502
lthumb 11.4541 13.4784
rfemur -30.4819 -5.03384 25.604
rtibia 35.623
rfoot -22.6881 6.18338
rtoes -5.49872
lfemur -43.4024 1.46355 -20.244
ltibia 69.4922
lfoot -6.35164 2.20612
ltoes -11.4817
261
root -0.233726 16.4984 12.0302 18.3365 2.98154 -0.389143
lowerback -14.8816 -0.495817 2.96195
upperback -5.33026 -1.15317 2.1919
thorax 2.68845 -0.57586 0.427848
lowerneck -4.39027 0.422642 0.943695
upperneck 7.10413 0.857625 -4.73768
head 3.08611 0.280607 -1.67711
rclavicle -2.7482e-014 3.10104e-014
rhumerus -30.366 -14.1303 -80.2683
rradius 25.9717
rwrist -2.54679
rhand -17.1727 -33.1814
rfingers 7.12502
rthumb 9.06865 -62.9664
lclavicle -2.7482e-014 3.10104e-014
lhumerus -36.5439 18.5173 76.7496
lradius 16.3678
lwrist -21.7351
lhand -12.8705 -15.6935
lfingers 7.12502
lthumb 13.2181 13.8674
rfemur -29.7972 -5.89943 25.9794
rtibia 35.5248
rfoot -23.3806 6.65431
rtoes -6.13025
lfemur -44.5791 1.61717 -20.3076
ltibia 68.0466
lfoot -6.91719 2.75974
ltoes -9.63406
262
root -0.238362 16.4738 12.2203 18.5473 2.86797 -0.550601
lowerback -14.9535 -0.368258 3.02747
upperback -5.386 -0.9955 2.19537
thorax 2.66887 -0.498375 0.420766
lowerneck -4.45303 0.461221 0.825648
upperneck 7.17263 0.908914 -4.57697
head 3.11983 0.307036 -1.60167
rclavicle -3.29237e-015 1.19271e-014
rhumerus -29.2563 -12.0154 -81.4778
rradius 27.8952
rwrist -4.35429
rhand -17.0848 -33.25
rfingers 7.12502
rthumb 9.15352 -63.0313
lclavicle -3.29237e-015 1.19271e-014
lhumerus -38.0054 21.2769 74.3925
lradius 14.6908
lwrist -27.1918
lhand -11.4836 -15.955
lfingers 7.12502
lthumb 14.5545 13.5144
rfemur -29.2152 -6.66972 26.3918
rtibia 35.403
rfoot -24.4713 6.29611
rtoes -10.6251
lfemur -45.9286 1.86995 -20.3989
ltibia 66.4419
lfoot -7.25782 3.36723
ltoes -7.77831
263
root -0.24263 16.4577 12.4178 18.78 2.65386 -0.753293
lowerback -15.0279 -0.216755 3.10049
upperback -5.51675 -0.805183 2.20726
thorax 2.57227 -0.406061 0.424296
lowerneck -4.29997 0.467737 0.708948
upperneck 7.19897 0.914032 -4.41472
head 3.09651 0.313701 -1.52637
rclavicle 3.18055e-015 1.51076e-014
rhumerus -28.2664 -10.3365 -82.3398
rradius 29.4846
rwrist -5.85064
rhand -17.0551 -33.0382
rfingers 7.12502
rthumb 9.18221 -62.8183
lclavicle 3.18055e-015 1.51076e-014
lhumerus -40.0662 24.3519 71.3609
lradius 13.4081
lwrist -33.2958
lhand -10.0342 -16.2958
lfingers 7.12502
lthumb 15.9507 13.0674
rfemur -28.5937 -7.09849 26.6854
rtibia 35.3
rfoot -25.5615 6.26896
rtoes -13.1095
lfemur -47.1403 2.13678 -20.4489
ltibia 64.5526
lfoot -7.54852 4.08559
ltoes -5.854
